<svg width="33" height="11" viewBox="0 0 33 11" fill="none" xmlns="http://www.w3.org/2000/svg">
  <path d="M0.462 8.302C1.36733 7.59267 2.10933 6.98133 2.688 6.468C3.26667 5.95467 3.752 5.42733 4.144 4.886C4.536 4.33533 4.732 3.81267 4.732 3.318C4.732 3.01933 4.662 2.786 4.522 2.618C4.39133 2.45 4.19533 2.366 3.934 2.366C3.66333 2.366 3.45333 2.48267 3.304 2.716C3.15467 2.94 3.08467 3.27133 3.094 3.71H0.434C0.462 2.87933 0.644 2.19333 0.98 1.652C1.316 1.10133 1.75467 0.699999 2.296 0.447999C2.83733 0.186666 3.43933 0.0559993 4.102 0.0559993C5.25 0.0559993 6.104 0.340666 6.664 0.909999C7.224 1.47933 7.504 2.21667 7.504 3.122C7.504 4.09267 7.17733 5.00267 6.524 5.852C5.88 6.70133 5.07267 7.462 4.102 8.134H7.602V10.36H0.462V8.302ZM7.8167 5.236C7.8167 3.63067 8.14337 2.366 8.7967 1.442C9.45004 0.517999 10.4767 0.0559993 11.8767 0.0559993C13.2767 0.0559993 14.3034 0.517999 14.9567 1.442C15.6194 2.366 15.9507 3.63067 15.9507 5.236C15.9507 6.86 15.624 8.134 14.9707 9.058C14.3174 9.982 13.286 10.444 11.8767 10.444C10.4674 10.444 9.43604 9.982 8.7827 9.058C8.1387 8.134 7.8167 6.86 7.8167 5.236ZM13.2347 5.236C13.2347 4.396 13.146 3.75667 12.9687 3.318C12.7914 2.87 12.4274 2.646 11.8767 2.646C11.326 2.646 10.962 2.87 10.7847 3.318C10.6074 3.75667 10.5187 4.396 10.5187 5.236C10.5187 6.09467 10.6027 6.748 10.7707 7.196C10.948 7.63467 11.3167 7.854 11.8767 7.854C12.4367 7.854 12.8007 7.63467 12.9687 7.196C13.146 6.748 13.2347 6.09467 13.2347 5.236Z" fill="#0047FF"/>
  <path d="M16.2339 8.302C17.1392 7.59267 17.8812 6.98133 18.4599 6.468C19.0385 5.95467 19.5239 5.42733 19.9159 4.886C20.3079 4.33533 20.5039 3.81267 20.5039 3.318C20.5039 3.01933 20.4339 2.786 20.2939 2.618C20.1632 2.45 19.9672 2.366 19.7059 2.366C19.4352 2.366 19.2252 2.48267 19.0759 2.716C18.9265 2.94 18.8565 3.27133 18.8659 3.71H16.2059C16.2339 2.87933 16.4159 2.19333 16.7519 1.652C17.0879 1.10133 17.5265 0.699999 18.0679 0.447999C18.6092 0.186666 19.2112 0.0559993 19.8739 0.0559993C21.0219 0.0559993 21.8759 0.340666 22.4359 0.909999C22.9959 1.47933 23.2759 2.21667 23.2759 3.122C23.2759 4.09267 22.9492 5.00267 22.2959 5.852C21.6519 6.70133 20.8445 7.462 19.8739 8.134H23.3739V10.36H16.2339V8.302ZM23.7566 8.82V6.552L28.0546 0.42H31.0646V6.44H32.1426V8.82H31.0646V10.5H28.2926V8.82H23.7566ZM28.5026 3.514L26.5706 6.44H28.5026V3.514Z" fill="#DA001A"/>
</svg>
